HIERARCHY
ROOT hip
{
	OFFSET 0.000000 0.000000 0.000000 
	CHANNELS 6 Xposition Yposition Zposition Xrotation Zrotation Yrotation
	JOINT abdomen
	{
		OFFSET 0.000000 3.402643 0.000000 
		CHANNELS 3 Xrotation Zrotation Yrotation
		JOINT chest
		{
			OFFSET 0.000000 8.438565 -0.680529 
			CHANNELS 3 Xrotation Zrotation Yrotation
			JOINT neck
			{
				OFFSET 0.000000 10.207942 -0.272212 
				CHANNELS 3 Xrotation Zrotation Yrotation
				JOINT head
				{
					OFFSET 0.000000 3.130431 0.000000 
					CHANNELS 3 Xrotation Zrotation Yrotation
					End Site
					{
						OFFSET 0.000000 3.130435 0.000000 
					}
				}
			}
			JOINT lCollar
			{
				OFFSET 3.470700 6.669187 -0.816635 
				CHANNELS 3 Yrotation Zrotation Xrotation
				JOINT lShldr
				{
					OFFSET 3.198488 0.000000 0.000000 
					CHANNELS 3 Zrotation Yrotation Xrotation
					JOINT lForeArm
					{
						OFFSET 10.139888 0.000000 0.000000 
						CHANNELS 3 Yrotation Zrotation Xrotation
						JOINT lHand
						{
							OFFSET 8.370511 0.000000 0.000000 
							CHANNELS 3 Zrotation Yrotation Xrotation
							End Site
							{
								OFFSET 4.083176 0.000000 0.000000 
							}
						}
					}
				}
			}
			JOINT rCollar
			{
				OFFSET -3.470700 6.669187 -0.816635 
				CHANNELS 3 Yrotation Zrotation Xrotation
				JOINT rShldr
				{
					OFFSET -3.198488 0.000000 0.000000 
					CHANNELS 3 Zrotation Yrotation Xrotation
					JOINT rForeArm
					{
						OFFSET -10.139888 0.000000 0.000000 
						CHANNELS 3 Yrotation Zrotation Xrotation
						JOINT rHand
						{
							OFFSET -8.370511 0.000000 0.000000 
							CHANNELS 3 Zrotation Yrotation Xrotation
							End Site
							{
								OFFSET -4.083176 0.000000 0.000000 
							}
						}
					}
				}
			}
		}
	}
	JOINT lThigh
	{
		OFFSET 5.308129 -1.633274 1.361059 
		CHANNELS 3 Xrotation Zrotation Yrotation
		JOINT lShin
		{
			OFFSET -2.041588 -20.007561 0.000000 
			CHANNELS 3 Xrotation Zrotation Yrotation
			JOINT lFoot
			{
				OFFSET 0.000000 -19.190928 -1.224953 
				CHANNELS 3 Xrotation Yrotation Zrotation
				End Site
				{
					OFFSET 0.000000 -2.449906 4.627600 
				}
			}
		}
	}
	JOINT rThigh
	{
		OFFSET -5.308129 -1.633274 1.361059 
		CHANNELS 3 Xrotation Zrotation Yrotation
		JOINT rShin
		{
			OFFSET 2.041588 -20.007561 0.000000 
			CHANNELS 3 Xrotation Zrotation Yrotation
			JOINT rFoot
			{
				OFFSET 0.000000 -19.190928 -1.224953 
				CHANNELS 3 Xrotation Yrotation Zrotation
				End Site
				{
					OFFSET 0.000000 -2.449906 4.627600 
				}
			}
		}
	}
}
MOTION
Frames: 6
Frame Time: 0.016667
-1.244258 45.285271 0.725655 5.049740 1.089510 -15.929000 -22.577700 1.730700 -3.446080 19.409800 4.959950 -1.299970 23.054600 5.939220 -6.096910 17.323700 7.321470 -3.074780 2.000000 -2.000000 0.000000 89.931602 178.391006 -1.165950 27.051100 -0.336608 0.062236 0.045031 -0.011285 -140.955002 -2.000000 2.000000 0.000000 -97.002899 179.768997 -6.737740 -30.117500 0.333108 0.068604 -0.055954 -0.012531 -128.934006 -5.641906 -3.341973 -1.104310 20.424761 2.994117 1.543351 -13.210712 24.967417 6.437716 -15.041722 -0.655119 9.507273 28.303675 -2.783967 -2.114983 -13.254954 0.661595 -0.596734 
-1.221161 45.284492 0.726494 4.883140 0.661652 -15.988300 -22.462099 1.780530 -3.397350 19.390499 4.784170 -1.278580 23.124901 5.800610 -6.112380 17.341600 7.263830 -3.085670 2.000000 -2.000000 0.000000 90.097603 178.567001 -0.911621 26.904600 -0.336767 0.061925 0.045050 -0.011558 -141.052994 -2.000000 2.000000 0.000000 -96.875900 179.690994 -6.708260 -30.156601 0.333061 0.068684 -0.056051 -0.013208 -128.688995 -5.617214 -3.000474 -1.151021 21.028265 3.055306 1.555898 -13.636208 25.007584 6.515656 -14.669849 -0.208065 9.764772 28.087181 -2.791825 -2.120189 -13.250339 0.278166 -0.697155 
-1.183067 45.280628 0.731242 4.785450 0.632553 -15.962600 -22.402300 1.711600 -3.386600 19.439600 4.706140 -1.282760 23.208099 5.733220 -6.094950 17.379999 7.234070 -3.077680 2.000000 -2.000000 0.000000 90.185501 178.733002 -0.930756 26.826500 -0.336851 0.061758 0.045029 -0.011258 -140.945007 -2.000000 2.000000 0.000000 -96.817299 179.643005 -6.581190 -30.117500 0.333108 0.068604 -0.056138 -0.013803 -128.475006 -5.490790 -3.018433 -1.056340 21.030161 3.047333 1.573988 -13.668005 24.872293 6.492769 -14.627840 -0.193302 9.854553 28.185120 -2.802165 -2.140598 -13.288561 0.125846 -0.732426 
-1.144973 45.276642 0.735990 4.687770 0.613177 -15.935900 -22.332600 1.648400 -3.388700 19.488701 4.618340 -1.296660 23.281900 5.657010 -6.092930 17.408600 7.204630 -3.080720 2.000000 -2.000000 0.000000 90.263702 178.899002 -0.939939 26.738600 -0.336945 0.061571 0.045006 -0.010931 -140.828003 -2.000000 2.000000 0.000000 -96.748901 179.584000 -6.454100 -30.078400 0.333154 0.068523 -0.056223 -0.014371 -128.268997 -5.463106 -3.061393 -0.981664 21.098677 3.051173 1.573790 -13.683399 24.780144 6.480732 -14.555174 -0.211312 9.919724 28.301424 -2.808930 -2.121045 -13.412266 -0.062699 -0.775978 
-1.103242 45.265934 0.746463 4.609710 0.691117 -15.920700 -22.361601 1.606130 -3.362290 19.439699 4.637790 -1.291200 23.328100 5.655950 -6.046750 17.400000 7.242950 -3.072980 2.000000 -2.000000 0.000000 90.195297 178.811005 -1.086620 26.806900 -0.336872 0.061717 0.044975 -0.010467 -140.662003 -2.000000 2.000000 0.000000 -96.836800 179.712006 -6.288390 -30.000299 0.333248 0.068362 -0.056207 -0.014263 -128.309006 -5.397620 -3.178927 -0.794776 21.069603 3.044509 1.563208 -13.658767 24.627529 6.411443 -14.567463 -0.370690 9.803527 28.448090 -2.818474 -2.130854 -13.433599 0.033496 -0.769741 
-1.061515 45.255363 0.756937 4.531660 0.769073 -15.905700 -22.390900 1.576340 -3.330400 19.380899 4.647460 -1.286370 23.374300 5.654890 -5.999600 17.400900 7.271450 -3.066260 2.000000 -2.000000 0.000000 90.126999 178.723999 -1.233300 26.875299 -0.336798 0.061862 0.044945 -0.010003 -140.496002 -2.000000 2.000000 0.000000 -96.914803 179.828995 -6.122650 -29.931999 0.333329 0.068220 -0.056190 -0.014155 -128.348007 -5.315964 -3.298660 -0.589819 21.009979 3.044840 1.554332 -13.650446 24.462463 6.384327 -14.597293 -0.526312 9.685769 28.614346 -2.828259 -2.140460 -13.454288 0.111122 -0.751251 
